<?xml version="1.0" standalone="no"?>
<!DOCTYPE svg PUBLIC "-//W3C//DTD SVG 20010904//EN"
 "http://www.w3.org/TR/2001/REC-SVG-20010904/DTD/svg10.dtd">
<svg version="1.0" xmlns="http://www.w3.org/2000/svg"
 width="2000.000000pt" height="469.000000pt" viewBox="0 0 2000.000000 469.000000"
 preserveAspectRatio="xMidYMid meet">

<g transform="translate(0.000000,469.000000) scale(0.100000,-0.100000)"
fill="#000000" stroke="none">
<path d="M19083 4679 c-100 -19 -128 -41 -375 -286 -131 -130 -236 -238 -234
-240 2 -2 65 17 141 42 362 120 829 211 1178 231 l113 7 42 121 c23 67 42 124
42 129 0 10 -854 7 -907 -4z"/>
<path d="M19443 3745 c-738 -85 -1410 -334 -2008 -742 -281 -193 -340 -246
-1022 -927 -359 -358 -653 -654 -653 -658 0 -5 163 -8 362 -8 l361 0 111 73
c416 275 863 495 1334 658 127 44 395 123 458 135 37 7 33 9 -51 21 -421 61
-629 528 -391 876 71 104 208 199 326 226 58 13 212 13 270 0 89 -20 189 -77
259 -148 113 -114 160 -230 161 -401 0 -157 -50 -280 -160 -391 -36 -36 -85
-76 -108 -88 -24 -12 -42 -25 -39 -28 3 -2 41 2 84 11 43 8 143 25 223 37 80
11 165 24 189 28 l45 6 138 390 c76 215 149 422 162 460 14 39 44 122 66 185
23 63 48 133 55 155 7 22 22 64 34 93 l21 52 -58 -1 c-31 -1 -107 -7 -169 -14z"/>
<path d="M18276 3335 c-51 -18 -51 -19 -27 -59 29 -46 20 -82 -25 -101 -41
-17 -44 -35 -6 -35 23 0 27 -4 29 -32 2 -21 -5 -40 -17 -53 -28 -30 -50 -89
-50 -135 0 -66 21 -102 86 -145 94 -62 104 -74 104 -116 l0 -37 -89 -4 c-105
-5 -121 -14 -121 -72 1 -38 2 -40 15 -22 8 11 15 14 15 8 0 -7 4 -12 10 -12 5
0 7 6 4 14 -4 10 0 13 13 10 12 -3 21 3 28 18 9 20 19 23 68 26 l57 3 0 -69 0
-70 -44 -6 c-24 -4 -52 -13 -62 -21 -18 -13 -17 -14 13 -15 31 0 32 -1 21 -25
-14 -32 -4 -43 20 -22 30 27 89 47 139 47 44 1 46 2 29 15 -11 8 -34 18 -53
21 l-33 6 0 69 0 69 45 0 c54 0 66 18 41 60 -26 45 -22 61 17 53 43 -8 57 -20
57 -50 0 -14 4 -21 10 -18 22 14 8 -12 -21 -38 -30 -26 -32 -47 -3 -47 8 0 14
-6 14 -14 0 -60 110 14 144 96 30 71 17 147 -34 193 -12 11 -90 54 -173 95
l-152 75 1 43 c0 28 8 52 23 70 12 15 28 41 36 58 10 22 23 33 45 37 34 7 36
16 14 63 -30 63 -115 94 -188 69z m110 -21 c38 -18 39 -21 20 -46 -25 -33
-103 17 -81 52 9 14 22 13 61 -6z m-6 -124 c0 -19 -7 -33 -20 -40 -31 -16 -45
-1 -21 21 12 11 21 29 21 40 0 11 5 17 10 14 6 -3 10 -19 10 -35z m-60 6 c0
-3 -4 -8 -10 -11 -5 -3 -10 -1 -10 4 0 6 5 11 10 11 6 0 10 -2 10 -4z m-16
-141 c-8 -28 -12 -62 -9 -77 7 -28 -5 -59 -36 -92 -19 -19 -19 -19 -19 40 0
60 25 130 57 166 23 26 24 19 7 -37z m126 -126 c52 -29 49 -30 -12 -6 -20 8
-30 8 -42 -2 -26 -22 -18 -47 24 -81 43 -34 47 -50 8 -30 -58 31 -88 83 -73
130 9 27 30 25 95 -11z m55 -43 c33 -12 66 -25 73 -29 19 -12 15 -30 -5 -22
-51 20 -49 20 -33 0 14 -16 13 -17 -8 -11 -16 6 -22 3 -22 -8 0 -9 -5 -16 -11
-16 -17 0 -109 80 -109 95 0 17 20 25 40 18 8 -4 42 -16 75 -27z m-105 -124
c-28 -5 -45 11 -36 34 6 15 9 15 32 -7 26 -24 26 -24 4 -27z m50 -101 c15 -29
12 -41 -10 -41 -16 0 -20 7 -20 30 0 34 14 39 30 11z"/>
<path d="M5960 2780 c0 -159 -1 -290 -3 -290 -2 0 -26 22 -55 50 -59 57 -108
84 -189 105 -108 28 -223 15 -327 -37 -242 -122 -352 -516 -240 -859 71 -219
211 -343 417 -369 143 -18 268 21 350 109 25 27 48 46 51 43 3 -3 6 -29 6 -59
l0 -54 153 3 152 3 3 823 2 822 -160 0 -160 0 0 -290z m-145 -438 c84 -43 130
-128 144 -270 27 -256 -78 -431 -260 -432 -110 0 -199 71 -245 194 -26 71 -27
287 -1 361 30 87 90 145 172 166 49 13 147 3 190 -19z"/>
<path d="M9770 2910 l0 -151 158 3 157 3 0 145 0 145 -157 3 -158 3 0 -151z"/>
<path d="M11015 3048 c-3 -7 -4 -377 -3 -823 l3 -810 158 -3 157 -3 0 826 0
825 -155 0 c-115 0 -157 -3 -160 -12z"/>
<path d="M11474 3047 c-2 -7 -3 -74 -2 -148 l3 -134 158 -3 157 -3 0 151 0
150 -155 0 c-119 0 -157 -3 -161 -13z"/>
<path d="M4 3026 c-3 -8 -4 -281 -2 -608 4 -571 5 -596 26 -672 65 -234 237
-362 518 -384 351 -29 596 73 700 291 61 130 65 170 62 812 l-3 570 -172 3
-172 2 -4 -592 c-2 -428 -6 -603 -15 -629 -21 -64 -66 -115 -129 -145 -53 -26
-68 -29 -163 -29 -83 0 -113 4 -143 19 -77 38 -125 106 -146 204 -7 36 -11
237 -11 612 l0 560 -170 0 c-138 0 -172 -3 -176 -14z"/>
<path d="M8612 2758 c-191 -537 -465 -1300 -477 -1330 -7 -17 5 -18 173 -18
l180 0 50 143 c27 78 53 152 56 165 l7 22 290 0 c159 0 292 1 297 3 7 2 43
-99 87 -245 l26 -88 189 0 c105 0 190 1 190 3 -1 1 -130 367 -288 812 l-287
810 -196 3 -196 2 -101 -282z m394 -418 c47 -151 87 -283 90 -292 5 -17 -9
-18 -195 -18 -111 0 -201 3 -201 6 0 3 46 146 102 316 84 256 103 307 110 287
5 -13 47 -148 94 -299z"/>
<path d="M1802 2645 c-189 -53 -315 -186 -384 -405 -20 -65 -23 -95 -22 -225
0 -111 5 -167 18 -215 52 -191 160 -315 321 -368 167 -56 359 -28 469 69 l38
33 -4 -104 c-3 -82 -9 -114 -25 -145 -48 -91 -129 -137 -253 -143 -155 -7
-254 54 -281 174 l-12 54 -144 0 -143 0 0 -48 c0 -199 158 -377 390 -439 89
-24 290 -24 380 1 153 42 289 144 349 264 60 120 61 123 61 835 l0 647 -155 0
-155 0 0 -65 c0 -36 -3 -65 -6 -65 -3 0 -26 21 -50 46 -66 67 -154 105 -257
110 -53 3 -100 -1 -135 -11z m274 -290 c95 -28 153 -112 175 -255 46 -297
-111 -501 -335 -436 -108 32 -176 123 -197 268 -13 89 0 215 30 283 57 128
184 183 327 140z"/>
<path d="M3138 2640 c-262 -33 -384 -142 -412 -372 l-6 -48 149 0 148 0 19 52
c35 96 135 142 259 119 101 -19 145 -54 145 -116 0 -84 -45 -111 -245 -145
-310 -52 -419 -106 -476 -235 -45 -103 -45 -265 1 -354 65 -126 253 -191 453
-156 101 17 178 49 229 94 20 17 38 31 41 31 3 0 8 -22 12 -50 l7 -50 154 0
154 0 0 409 c0 446 -6 515 -55 610 -50 100 -142 167 -267 195 -83 19 -227 26
-310 16z m291 -864 c-32 -82 -97 -135 -194 -161 -80 -21 -147 -12 -188 25 -26
23 -31 35 -35 86 -7 108 48 156 233 199 60 14 128 34 150 44 l40 18 3 -91 c2
-53 -2 -102 -9 -120z"/>
<path d="M4450 2636 c-84 -25 -140 -58 -195 -118 l-55 -59 0 80 0 81 -150 0
-150 0 0 -610 0 -610 154 0 155 0 3 393 c3 296 7 401 17 427 35 90 103 139
206 147 100 8 181 -25 208 -86 8 -18 14 -156 17 -446 l5 -420 155 0 155 0 3
445 c2 314 0 461 -9 500 -25 119 -91 203 -198 254 -59 27 -77 31 -171 33 -64
1 -122 -3 -150 -11z"/>
<path d="M6827 2640 c-154 -19 -269 -74 -334 -159 -38 -49 -73 -154 -73 -217
l0 -44 145 0 c130 0 146 2 151 18 3 9 15 37 27 62 40 82 164 117 289 81 99
-28 135 -118 73 -181 -33 -33 -57 -39 -312 -88 -234 -45 -317 -92 -375 -209
-28 -58 -33 -79 -36 -164 -6 -130 14 -196 78 -260 132 -132 432 -139 614 -14
l64 44 9 -47 8 -47 153 -3 152 -3 0 419 c0 256 -4 441 -11 478 -23 128 -100
234 -205 283 -97 46 -281 68 -417 51z m313 -723 c0 -100 -22 -169 -71 -222
-52 -57 -125 -87 -209 -89 -113 -1 -167 49 -158 146 9 94 59 130 238 173 63
15 131 36 150 46 19 10 38 18 43 19 4 0 7 -33 7 -73z"/>
<path d="M10747 2639 c-62 -14 -117 -48 -168 -102 l-49 -50 0 66 0 67 -150 0
-150 0 0 -600 0 -600 159 0 160 0 3 358 3 357 28 57 c52 107 147 156 279 145
l68 -6 0 160 0 159 -72 -1 c-40 -1 -90 -5 -111 -10z"/>
<path d="M12482 2635 c-94 -26 -169 -76 -213 -140 -13 -19 -27 -35 -31 -35 -5
0 -8 36 -8 80 l0 81 -147 -3 -148 -3 0 -605 0 -605 158 -3 157 -3 0 379 c0
425 3 453 67 523 45 50 119 74 209 66 78 -6 123 -31 149 -82 19 -38 20 -65 25
-455 l5 -415 155 0 155 0 3 425 c1 246 -2 452 -7 490 -21 133 -95 235 -210
288 -47 22 -72 27 -161 29 -70 2 -123 -2 -158 -12z"/>
<path d="M14765 2643 c-159 -21 -294 -110 -336 -222 -14 -39 -21 -80 -21 -134
0 -67 4 -86 31 -142 61 -123 155 -175 457 -253 212 -56 254 -81 254 -155 0
-76 -72 -117 -206 -117 -136 0 -231 51 -251 137 l-9 38 -163 3 -164 3 5 -59
c12 -126 95 -233 231 -298 96 -45 205 -66 347 -66 244 0 403 70 470 205 76
155 56 325 -49 420 -68 61 -119 82 -351 141 -178 45 -244 71 -275 107 -43 51
-29 110 30 135 42 17 198 19 246 3 48 -16 88 -57 100 -101 l10 -38 154 0 155
0 0 33 c0 91 -67 221 -138 271 -98 67 -215 96 -382 94 -63 0 -128 -3 -145 -5z"/>
<path d="M13585 2624 c-85 -16 -193 -69 -257 -124 -69 -60 -140 -172 -174
-276 -26 -80 -29 -102 -29 -219 0 -117 3 -139 29 -219 91 -276 314 -428 610
-414 161 8 280 60 382 165 42 44 101 143 118 201 l7 22 -163 0 -163 0 -19 -34
c-11 -21 -38 -45 -70 -62 -43 -25 -62 -29 -126 -29 -53 0 -86 6 -114 20 -82
40 -139 122 -152 219 l-7 46 418 0 418 0 -7 103 c-19 291 -125 486 -309 567
-106 47 -260 60 -392 34z m199 -245 c86 -22 151 -101 163 -200 l6 -49 -242 0
c-193 0 -241 3 -241 13 0 30 31 114 53 144 64 88 154 119 261 92z"/>
<path d="M9770 2015 l0 -606 158 3 157 3 0 600 0 600 -157 3 -158 3 0 -606z"/>
<path d="M11475 2608 c-3 -7 -4 -278 -3 -603 l3 -590 158 -3 157 -3 0 606 0
605 -155 0 c-115 0 -157 -3 -160 -12z"/>
<path d="M18910 1742 c-389 -30 -894 -138 -1315 -280 l-140 -47 684 -3 c377
-1 688 1 692 5 8 9 121 325 117 327 -2 1 -19 0 -38 -2z"/>
<path d="M3130 475 l0 -296 38 3 37 3 0 290 0 290 -37 3 -38 3 0 -296z"/>
<path d="M4150 475 l0 -296 38 3 37 3 5 135 c3 85 10 144 18 158 19 34 73 54
109 42 50 -18 57 -42 61 -197 l4 -143 34 0 34 0 0 150 c0 130 -3 156 -20 189
-21 42 -69 71 -117 71 -36 0 -112 -35 -115 -52 -1 -7 -4 41 -8 107 l-5 120
-37 3 -38 3 0 -296z"/>
<path d="M8540 475 l0 -296 38 3 37 3 5 135 c6 151 13 174 66 196 29 12 39 12
68 0 46 -19 56 -55 56 -208 l0 -129 38 3 37 3 3 114 c3 144 -10 211 -49 251
-50 50 -143 50 -197 0 l-21 -20 -3 117 -3 118 -37 3 -38 3 0 -296z"/>
<path d="M11080 475 l0 -295 35 0 35 0 0 295 0 295 -35 0 -35 0 0 -295z"/>
<path d="M11967 750 c-37 -29 -50 -56 -57 -115 -5 -46 -7 -50 -32 -53 -22 -3
-28 -9 -28 -27 0 -18 6 -24 28 -27 l27 -3 3 -172 2 -173 35 0 35 0 2 173 3
172 48 3 c39 3 47 6 47 23 0 16 -7 19 -44 19 -25 0 -48 5 -51 10 -11 18 6 91
26 111 12 12 33 19 60 19 38 0 40 1 37 28 -3 25 -6 27 -59 30 -44 2 -61 -1
-82 -18z"/>
<path d="M12877 750 c-36 -29 -48 -54 -56 -114 -5 -46 -9 -51 -33 -54 -22 -3
-28 -9 -28 -27 0 -18 6 -24 28 -27 l27 -3 3 -172 2 -173 35 0 35 0 2 173 3
172 48 3 c39 3 47 6 47 23 0 16 -7 19 -44 19 -25 0 -47 4 -50 9 -11 17 12 105
30 118 10 7 35 13 57 13 36 0 38 2 35 28 -3 25 -6 27 -59 30 -44 2 -61 -1 -82
-18z"/>
<path d="M5393 740 c-143 -29 -232 -152 -221 -309 12 -158 110 -252 267 -252
70 0 151 16 151 29 0 5 -6 15 -12 24 -11 13 -23 14 -78 6 -146 -23 -243 48
-257 186 -18 173 114 281 294 242 30 -7 34 -5 43 20 14 35 6 41 -59 54 -60 11
-69 11 -128 0z"/>
<path d="M9645 741 l-50 -6 -3 -278 -2 -278 32 3 33 3 3 108 3 107 43 0 c62 0
140 26 174 58 56 53 65 145 19 213 -39 60 -132 85 -252 70z m155 -74 c14 -7
33 -29 43 -50 17 -33 17 -42 5 -80 -16 -52 -60 -77 -135 -77 l-53 0 0 110 0
110 58 0 c31 0 68 -6 82 -13z"/>
<path d="M12371 477 c-50 -149 -91 -276 -91 -280 0 -5 17 -7 37 -5 37 3 37 4
62 80 l25 78 97 0 96 0 30 -83 c30 -81 31 -82 67 -85 25 -2 36 1 36 10 0 7
-41 136 -91 285 l-91 273 -43 0 -43 0 -91 -273z m209 -54 c0 -2 -36 -3 -79 -3
l-79 0 35 103 c19 56 36 108 39 116 4 11 84 -196 84 -216z"/>
<path d="M13331 734 c-15 -11 -21 -24 -19 -42 3 -23 8 -27 40 -30 33 -3 38 0
44 22 11 45 -28 75 -65 50z"/>
<path d="M2750 459 l0 -280 33 3 32 3 3 123 3 122 104 0 105 0 0 30 0 30 -105
0 -105 0 0 95 0 95 110 0 110 0 0 30 0 30 -145 0 -145 0 0 -281z"/>
<path d="M3928 688 c-23 -8 -27 -15 -30 -56 -3 -43 -5 -47 -30 -50 -22 -3 -28
-9 -28 -27 0 -18 6 -24 28 -27 l27 -3 5 -146 c6 -162 9 -172 69 -190 57 -17
85 -9 89 24 3 24 0 27 -27 27 -54 0 -61 17 -61 161 l0 129 50 0 c47 0 50 2 50
25 0 23 -3 25 -50 25 l-50 0 0 54 c0 30 -3 57 -7 59 -5 2 -20 0 -35 -5z"/>
<path d="M7423 688 c-32 -8 -33 -11 -33 -58 0 -49 -1 -50 -30 -50 -25 0 -30
-4 -30 -25 0 -21 5 -25 30 -25 l30 0 0 -135 c0 -154 10 -186 61 -204 63 -22
109 -11 109 25 0 21 -5 24 -34 24 -57 0 -66 24 -66 167 l0 123 50 0 c47 0 50
2 50 25 0 23 -3 25 -50 25 l-49 0 -3 58 -3 58 -32 -8z"/>
<path d="M8318 688 c-25 -9 -28 -14 -28 -59 0 -48 -1 -49 -30 -49 -25 0 -30
-4 -30 -24 0 -19 6 -25 28 -28 l27 -3 5 -146 c6 -162 9 -172 69 -190 57 -17
85 -9 89 24 3 24 0 27 -27 27 -54 0 -61 17 -61 161 l0 129 50 0 c47 0 50 2 50
25 0 23 -3 25 -50 25 l-50 0 0 54 c0 30 -3 57 -7 59 -5 2 -20 0 -35 -5z"/>
<path d="M5803 585 c-18 -7 -38 -23 -45 -34 -17 -28 -28 -26 -28 4 0 21 -5 25
-30 25 l-30 0 0 -200 0 -200 35 0 35 0 0 133 c0 161 12 190 85 209 43 12 46
14 43 43 -3 35 -20 40 -65 20z"/>
<path d="M6475 585 c-22 -8 -47 -23 -56 -34 -16 -20 -17 -20 -23 9 -5 25 -10
30 -36 30 l-30 0 0 -206 0 -205 38 3 37 3 5 141 c5 154 10 167 67 190 21 9 40
11 55 5 47 -18 53 -35 58 -190 l5 -146 38 -3 37 -3 0 153 c0 130 -3 159 -19
188 -33 62 -108 90 -176 65z"/>
<path d="M7764 591 c-60 -15 -102 -50 -130 -107 -52 -106 -16 -237 77 -284 86
-45 201 -17 255 61 51 74 45 201 -13 270 -44 52 -121 76 -189 60z m118 -78
c75 -66 58 -227 -28 -268 -34 -16 -42 -17 -78 -4 -56 20 -86 66 -86 136 0 70
21 117 62 143 39 25 98 22 130 -7z"/>
<path d="M10953 593 c-12 -2 -36 -20 -53 -39 l-30 -35 0 31 c0 27 -3 30 -30
30 l-30 0 0 -201 0 -200 33 3 32 3 5 141 c6 160 12 175 82 196 34 10 38 14 38
45 0 33 -2 35 -47 26z"/>
<path d="M11574 591 c-92 -23 -144 -88 -152 -189 -8 -118 48 -201 150 -220
185 -35 308 179 196 341 -36 51 -130 84 -194 68z m104 -76 c41 -34 55 -75 50
-143 -5 -73 -34 -117 -86 -133 -73 -21 -138 27 -149 110 -18 137 97 240 185
166z"/>
<path d="M13195 593 c-11 -3 -35 -19 -52 -36 l-33 -31 0 27 c0 23 -4 27 -30
27 l-30 0 0 -200 0 -200 34 0 35 0 3 144 c3 162 9 177 80 198 34 10 38 14 38
45 0 33 -4 36 -45 26z"/>
<path d="M13632 588 c-59 -13 -126 -78 -142 -138 -28 -103 11 -210 92 -251 46
-23 142 -29 190 -10 23 9 26 13 19 38 -5 17 -14 27 -22 24 -50 -13 -99 -12
-131 3 -73 35 -102 148 -55 217 41 61 100 79 183 54 17 -5 22 -2 26 20 4 17 0
28 -11 34 -28 15 -104 19 -149 9z"/>
<path d="M3280 580 c0 -5 32 -90 70 -188 39 -98 70 -185 70 -193 0 -25 -48
-86 -85 -109 -35 -21 -43 -42 -26 -69 13 -20 54 -7 96 31 43 37 110 170 186
368 28 74 54 141 56 148 4 8 -7 12 -35 12 l-40 0 -53 -152 c-51 -145 -53 -151
-64 -123 -7 17 -33 87 -60 158 l-48 127 -33 0 c-19 0 -34 -4 -34 -10z"/>
<path d="M5987 576 c-48 -18 -50 -20 -42 -46 5 -17 12 -20 28 -15 12 4 45 9
73 12 44 4 55 2 73 -16 11 -11 21 -32 21 -45 0 -22 -6 -25 -52 -31 -143 -20
-215 -101 -175 -198 29 -68 131 -90 201 -42 l36 24 6 -25 c5 -21 12 -25 36
-22 l30 3 -1 148 c-2 164 -14 213 -58 242 -35 23 -129 29 -176 11z m153 -226
c0 -54 -17 -86 -55 -105 -43 -20 -58 -19 -86 3 -28 24 -30 75 -3 103 11 11 40
23 64 28 79 16 80 15 80 -29z"/>
<path d="M10452 573 c-37 -13 -42 -18 -36 -36 9 -31 9 -31 45 -18 76 26 141 5
154 -50 6 -26 5 -27 -52 -34 -68 -8 -130 -33 -157 -64 -12 -13 -21 -41 -24
-75 -4 -48 -1 -56 25 -86 24 -27 39 -33 80 -37 50 -5 123 18 123 38 0 19 19 8
22 -14 2 -16 11 -23 33 -25 l31 -3 -4 163 c-3 129 -7 169 -21 193 -34 60 -127
81 -219 48z m166 -220 c7 -71 -63 -136 -124 -116 -33 11 -50 47 -40 86 7 29
34 47 86 58 61 12 75 7 78 -28z"/>
<path d="M13935 575 c-22 -8 -41 -15 -42 -15 -2 0 -3 -12 -3 -26 0 -23 3 -25
23 -19 12 4 45 9 74 12 46 5 54 3 77 -20 46 -46 36 -62 -44 -74 -38 -6 -86
-21 -106 -34 -83 -51 -84 -173 -2 -215 41 -21 119 -14 158 14 l29 22 3 -23 c2
-17 11 -23 37 -25 l33 -3 -3 165 c-4 147 -6 167 -25 193 -43 59 -126 78 -209
48z m155 -230 c0 -35 -6 -51 -27 -75 -40 -43 -84 -49 -117 -17 -61 61 1 130
122 136 20 1 22 -4 22 -44z"/>
<path d="M4675 557 c-133 -75 -121 -314 20 -372 66 -28 215 -11 215 24 0 34
-14 41 -55 30 -48 -14 -116 -5 -151 18 -24 16 -54 67 -54 93 0 6 51 10 141 10
l141 0 -4 60 c-5 67 -24 101 -78 138 -45 30 -120 30 -175 -1z m134 -31 c28
-15 51 -53 51 -86 0 -19 -7 -20 -98 -20 -54 0 -101 3 -105 6 -11 11 15 64 45
89 33 28 66 32 107 11z"/>
<path d="M6858 560 c-67 -36 -103 -114 -96 -210 10 -139 138 -214 290 -168 35
10 39 14 33 37 -4 14 -8 27 -9 28 -1 2 -27 -2 -57 -9 -94 -19 -166 17 -185 95
l-6 27 141 0 141 0 0 43 c0 56 -36 126 -79 154 -43 29 -121 30 -173 3z m131
-34 c28 -15 51 -53 51 -86 0 -19 -7 -20 -99 -20 -55 0 -102 4 -105 8 -3 5 4
27 15 49 29 60 81 78 138 49z"/>
<path d="M9075 566 c-67 -30 -105 -102 -105 -195 0 -97 29 -147 105 -182 49
-23 142 -25 190 -5 30 13 34 18 26 38 -9 26 -7 25 -74 14 -64 -11 -118 5 -151
45 -14 17 -26 41 -26 55 l0 24 141 0 142 0 -6 51 c-8 62 -34 116 -70 143 -34
25 -130 32 -172 12z m124 -42 c25 -18 55 -79 46 -94 -4 -6 -51 -10 -106 -10
-111 0 -117 5 -79 68 31 51 94 67 139 36z"/>
<path d="M10075 566 c-67 -30 -105 -101 -105 -196 0 -126 76 -201 202 -199 74
0 124 19 120 44 -6 31 -14 34 -63 23 -89 -21 -172 19 -185 90 l-6 32 142 0
143 0 -6 51 c-8 68 -44 130 -87 151 -41 21 -113 23 -155 4z m130 -48 c25 -23
49 -81 37 -92 -3 -3 -50 -6 -104 -6 -110 0 -116 5 -78 68 33 55 100 68 145 30z"/>
<path d="M13322 383 l3 -198 38 -3 37 -3 0 200 0 201 -40 0 -40 0 2 -197z"/>
</g>
</svg>
